<?xml version="1.0" encoding="UTF-8" standalone="no"?>
<svg
   xmlns:dc="http://purl.org/dc/elements/1.1/"
   xmlns:cc="http://creativecommons.org/ns#"
   xmlns:rdf="http://www.w3.org/1999/02/22-rdf-syntax-ns#"
   xmlns:svg="http://www.w3.org/2000/svg"
   xmlns="http://www.w3.org/2000/svg"
   xmlns:sodipodi="http://sodipodi.sourceforge.net/DTD/sodipodi-0.dtd"
   xmlns:inkscape="http://www.inkscape.org/namespaces/inkscape"
   sodipodi:docname="safari-pinned-tab.svg"
   inkscape:version="1.0 (4035a4fb49, 2020-05-01)"
   id="svg8"
   version="1.1"
   viewBox="0 0 42.333335 42.333332"
   height="120pt"
   width="120pt"
   inkscape:export-filename="D:\LCL\Documents\趣考研项目\mstile-150x150.png"
   inkscape:export-xdpi="94.894348"
   inkscape:export-ydpi="94.894348">
  <defs
     id="defs2" />
  <sodipodi:namedview
     inkscape:window-maximized="1"
     inkscape:window-y="-10"
     inkscape:window-x="2550"
     inkscape:window-height="1006"
     inkscape:window-width="1920"
     showgrid="false"
     inkscape:document-rotation="0"
     inkscape:current-layer="layer1"
     inkscape:document-units="mm"
     inkscape:cy="100.12533"
     inkscape:cx="69.905288"
     inkscape:zoom="1.8101934"
     inkscape:pageshadow="2"
     inkscape:pageopacity="0.0"
     borderopacity="1.0"
     bordercolor="#666666"
     pagecolor="#ffffff"
     id="base"
     units="pt" />
  <metadata
     id="metadata5">
    <rdf:RDF>
      <cc:Work
         rdf:about="">
        <dc:format>image/svg+xml</dc:format>
        <dc:type
           rdf:resource="http://purl.org/dc/dcmitype/StillImage" />
        <dc:title></dc:title>
      </cc:Work>
    </rdf:RDF>
  </metadata>
  <g
     id="layer1"
     inkscape:groupmode="layer"
     inkscape:label="图层 1">
    <path
       id="path181"
       style="fill:#2a2aff;stroke-width:0.279616"
       inkscape:transform-center-x="5.7951837"
       inkscape:transform-center-y="0.69516552"
       d="M 4.0286118,0.87718158 2.6838365,20.936939 1.3390609,40.996696 4.8187395,27.039409 c 0.559118,-2.147118 1.0633599,-4.306952 1.6021873,-6.459037 0.5388269,-2.152086 1.1118623,-4.296109 1.8093867,-6.412012 0.074536,-0.235281 0.1837019,-0.55572 0.3255162,-0.882634 0.1418146,-0.326913 0.3167495,-0.660266 0.5234815,-0.92139 0.103366,-0.130562 0.214444,-0.243031 0.3335969,-0.327629 0.1191532,-0.0846 0.2462782,-0.141757 0.3809232,-0.160714 0.134645,-0.01896 0.2766767,-2.16e-4 0.4265187,0.06615 0.149842,0.06636 0.30737,0.180558 0.472114,0.351917 0.824609,1.031424 1.536337,2.139337 2.295353,3.216341 0.379508,0.538502 0.771021,1.069054 1.194137,1.578715 0.423115,0.509661 0.877874,0.998628 1.384599,1.452624 0.455868,0.467476 0.96563,0.868908 1.513305,1.221114 0.547674,0.352207 1.133083,0.655056 1.740706,0.925009 0.607621,0.269953 1.23774,0.506889 1.87345,0.727604 0.63571,0.220715 1.277297,0.424927 1.909234,0.629419 0.624558,0.278679 1.437839,0.469004 2.143561,0.762227 0.352861,0.146611 0.678582,0.319109 0.940766,0.541052 0.131093,0.110972 0.24597,0.234337 0.340523,0.373104 0.09455,0.138767 0.168823,0.293068 0.217588,0.465605 -0.136808,0.300064 -0.341616,0.54631 -0.590432,0.754992 -0.248817,0.208683 -0.541944,0.379463 -0.855347,0.529167 -0.626804,0.299408 -1.335172,0.513618 -1.935783,0.771529 -1.095743,0.335506 -2.190924,0.685141 -3.252857,1.098641 -0.530965,0.20675 -1.053315,0.429543 -1.563517,0.674378 -0.510202,0.244834 -1.008413,0.511875 -1.489642,0.807185 -1.425228,0.842107 -2.80012,1.744488 -4.133019,2.69441 -1.332901,0.949921 -2.6236067,1.947332 -3.8808023,2.979146 C 7.2870903,35.528136 6.0636051,36.594391 4.8654892,37.682175 3.6673731,38.769956 2.4947205,39.878873 1.3390609,40.9967 L 21.414306,32.009648 41.488975,23.0226 22.759082,11.949891 Z" />
    <path
       id="path167"
       style="fill:#d7d7f4;stroke-width:0.279616"
       inkscape:transform-center-x="5.7951836"
       inkscape:transform-center-y="0.69516552"
       d="m 7.7056004,32.51924 c 1.1556593,-1.117827 2.3283116,-2.226744 3.5264276,-3.314525 1.198116,-1.087784 2.421601,-2.154039 3.678797,-3.185853 1.257197,-1.031814 2.547902,-2.029224 3.880802,-2.979146 1.332901,-0.949922 2.707792,-1.852303 4.13302,-2.694409 0.48123,-0.295311 0.97944,-0.562352 1.489642,-0.807186 0.510202,-0.244835 1.032552,-0.467628 1.563519,-0.674378 1.061932,-0.413499 2.157112,-0.763134 3.252854,-1.098639 0.600611,-0.257912 1.30898,-0.472122 1.935785,-0.77153 0.313401,-0.149704 0.60653,-0.320484 0.855347,-0.529166 0.248815,-0.208683 0.453623,-0.454929 0.59043,-0.754993 -0.04877,-0.172537 -0.123035,-0.326838 -0.217588,-0.465606 -0.09455,-0.138767 -0.20943,-0.262132 -0.340523,-0.373103 -0.262184,-0.221944 -0.587903,-0.394441 -0.940765,-0.541053 -0.705721,-0.293222 -1.519003,-0.483548 -2.14356,-0.762227 -0.631939,-0.204492 -1.273526,-0.408704 -1.909235,-0.629419 -0.635708,-0.220715 -1.26583,-0.457651 -1.873451,-0.727604 C 24.579482,11.94045 23.994071,11.637601 23.446397,11.285395 22.898724,10.933188 22.388961,10.531756 21.933092,10.064281 21.426366,9.6102844 20.971608,9.1213183 20.548493,8.6116563 20.125379,8.1019953 19.733863,7.5714433 19.354355,7.0329414 18.595339,5.9559373 17.883611,4.8480244 17.059003,3.8166004 16.894258,3.6452414 16.73673,3.5310464 16.586888,3.4646844 c -0.149841,-0.06636 -0.291873,-0.0851 -0.426518,-0.06615 -0.134645,0.01896 -0.261771,0.07611 -0.380924,0.160713 -0.119153,0.0846 -0.230231,0.197067 -0.333597,0.327629 -0.206732,0.261124 -0.381667,0.594477 -0.523481,0.921391 -0.141815,0.326913 -0.25098,0.647352 -0.325517,0.8826329 -0.697524,2.115903 -1.270559,4.2599261 -1.809386,6.4120117 -0.538828,2.152085 -1.043069,4.311921 -1.602187,6.459037 z" />
  </g>
</svg>
